<svg xmlns="http://www.w3.org/2000/svg" width="16" height="14" fill="none">
  <g filter="url(#a)">
    <path fill="silver" d="M0 0h16v14H0z"/>
    <g clip-path="url(#b)">
      <path fill="#000" fill-rule="evenodd" d="M4 3h2v1h1v1h2V4h1V3h2v1h-1v1h-1v1H9v1h1v1h1v1h1v1h-2V9H9V8H7v1H6v1H4V9h1V8h1V7h1V6H6V5H5V4H4V3Z" clip-rule="evenodd"/>
    </g>
  </g>
  <defs>
    <clipPath id="b">
      <path fill="#fff" d="M4 3h8v7H4z"/>
    </clipPath>
    <filter id="a" width="16" height="14" x="0" y="0" color-interpolation-filters="sRGB" filterUnits="userSpaceOnUse">
      <feFlood flood-opacity="0" result="BackgroundImageFix"/>
      <feBlend in="SourceGraphic" in2="BackgroundImageFix" result="shape"/>
      <feColorMatrix in="SourceAlpha" result="hardAlpha" values="0 0 0 0 0 0 0 0 0 0 0 0 0 0 0 0 0 0 127 0"/>
      <feOffset dx="2" dy="2"/>
      <feComposite in2="hardAlpha" k2="-1" k3="1" operator="arithmetic"/>
      <feColorMatrix values="0 0 0 0 0.87451 0 0 0 0 0.87451 0 0 0 0 0.87451 0 0 0 1 0"/>
      <feBlend in2="shape" result="effect1_innerShadow_75_3761"/>
      <feColorMatrix in="SourceAlpha" result="hardAlpha" values="0 0 0 0 0 0 0 0 0 0 0 0 0 0 0 0 0 0 127 0"/>
      <feOffset dx="-2" dy="-2"/>
      <feComposite in2="hardAlpha" k2="-1" k3="1" operator="arithmetic"/>
      <feColorMatrix values="0 0 0 0 0.501961 0 0 0 0 0.501961 0 0 0 0 0.501961 0 0 0 1 0"/>
      <feBlend in2="effect1_innerShadow_75_3761" result="effect2_innerShadow_75_3761"/>
      <feColorMatrix in="SourceAlpha" result="hardAlpha" values="0 0 0 0 0 0 0 0 0 0 0 0 0 0 0 0 0 0 127 0"/>
      <feOffset dx="1" dy="1"/>
      <feComposite in2="hardAlpha" k2="-1" k3="1" operator="arithmetic"/>
      <feColorMatrix values="0 0 0 0 1 0 0 0 0 1 0 0 0 0 1 0 0 0 1 0"/>
      <feBlend in2="effect2_innerShadow_75_3761" result="effect3_innerShadow_75_3761"/>
      <feColorMatrix in="SourceAlpha" result="hardAlpha" values="0 0 0 0 0 0 0 0 0 0 0 0 0 0 0 0 0 0 127 0"/>
      <feOffset dx="-1" dy="-1"/>
      <feComposite in2="hardAlpha" k2="-1" k3="1" operator="arithmetic"/>
      <feColorMatrix values="0 0 0 0 0.0392157 0 0 0 0 0.0392157 0 0 0 0 0.0392157 0 0 0 1 0"/>
      <feBlend in2="effect3_innerShadow_75_3761" result="effect4_innerShadow_75_3761"/>
    </filter>
  </defs>
</svg>
