<svg xmlns="http://www.w3.org/2000/svg" width="21" height="22" fill="none">
  <path fill="#FF0" d="M2 6 .5 8.5l.5 5 4.5 6h1l1 .5H13l1-.5h1.5L19 15l1-2V8l-1-1V5.5l-3-3L13 1H7.5L2 5v1Z"/>
  <path fill="#000" d="M3.67555 3.73877H2.4502v1.24625h1.22535V3.73877Zm14.70385 0h-1.2253v1.24625h1.2253V3.73877ZM4.9009 2.49243H3.67554v1.24625H4.9009V2.49243ZM7.35183 6.2312H6.12646v1.24625h1.22537V6.2312Z"/>
  <path fill="#000" d="M8.57716 4.98511H7.35181v1.24625h1.22535V4.98511Zm-2.45092 0H4.90088v1.24625h1.22536V4.98511Zm2.45092 2.49194H7.35181V8.7233h1.22535V7.47705Zm-2.45092 0H4.90088V8.7233h1.22536V7.47705ZM14.0908 6.2312h-1.2253v1.24625h1.2253V6.2312Zm1.2254-1.24609h-1.2254v1.24625h1.2254V4.98511Z"/>
  <path fill="#000" d="M12.8655 4.98511h-1.2254v1.24625h1.2254V4.98511Zm2.4507 2.49194h-1.2254V8.7233h1.2254V7.47705Zm-2.4507 0h-1.2254V8.7233h1.2254V7.47705Zm4.2886-4.98462h-1.2254v1.24625h1.2254V2.49243ZM2.4507 4.98511H1.22534v1.24625H2.4507V4.98511Z"/>
  <path fill="#000" d="M2.4507 6.2312H1.22534v1.24625H2.4507V6.2312Zm17.1541-1.24609h-1.2254v1.24625h1.2254V4.98511Z"/>
  <path fill="#000" d="M19.6048 6.2312h-1.2254v1.24625h1.2254V6.2312ZM1.22536 7.47705H0V8.7233h1.22536V7.47705Zm0 1.24634H0v1.24625h1.22536V8.72339Z"/>
  <path fill="#000" d="M1.22536 9.96948H0v1.24622h1.22536V9.96948Zm0 1.24632H0v1.2463h1.22536v-1.2463Z"/>
  <path fill="#000" d="M1.22536 12.4619H0v1.2463h1.22536v-1.2463ZM20.8301 7.47705h-1.2254V8.7233h1.2254V7.47705Zm0 1.24634h-1.2254v1.24625h1.2254V8.72339Z"/>
  <path fill="#000" d="M20.8301 9.96948h-1.2254v1.24622h1.2254V9.96948Zm0 1.24632h-1.2254v1.2463h1.2254v-1.2463Z"/>
  <path fill="#000" d="M20.8301 12.4619h-1.2254v1.2463h1.2254v-1.2463ZM7.35205 19.9395v1.2463h1.22536v-1.2463H7.35205Z"/>
  <path fill="#000" d="M8.57715 19.9395v1.2463h1.22536v-1.2463H8.57715Z"/>
  <path fill="#000" d="M9.80249 19.9391v1.2462h1.22531v-1.2462H9.80249Z"/>
  <path fill="#000" d="M11.0278 19.9391v1.2462h1.2254v-1.2462h-1.2254Zm1.2254 0v1.2462h1.2253v-1.2462h-1.2253Zm1.2253-6.2309v-1.2463h-1.2253v1.2463h1.2253Zm-1.2253 0v-1.2463h-1.2254v1.2463h1.2254Zm-1.2254 0v-1.2463H9.80247v1.2463h1.22533Z"/>
  <path fill="#000" d="M9.80249 13.7082v-1.2463H8.57713v1.2463h1.22536Z"/>
  <path fill="#000" d="M8.57715 13.7082v-1.2463H7.35179v1.2463h1.22536ZM7.35181.0001v1.24624h1.22536V.00009H7.35181Z"/>
  <path fill="#000" d="M8.57715.00009v1.24625h1.22536V.00009H8.57715Z"/>
  <path fill="#000" d="M9.80249.00009v1.24625h1.22531V.00009H9.80249Z"/>
  <path fill="#000" d="M11.0278.0001v1.24624h1.2254V.00009h-1.2254Zm1.2254-.00001v1.24625h1.2253V.00009h-1.2253ZM2.4507 13.7083H1.22534v1.2462H2.4507v-1.2462Zm0 1.2463H1.22534v1.2462H2.4507v-1.2462Zm17.1541-1.2463h-1.2254v1.2462h1.2254v-1.2462Zm0 1.2463h-1.2254v1.2462h1.2254v-1.2462Z"/>
  <path fill="#000" d="M3.67555 16.2007H2.4502v1.2462h1.22535v-1.2462ZM4.9009 17.447H3.67554v1.2463H4.9009V17.447Zm9.8024-1.2463h1.2254v-1.2463h-1.2254v1.2463Zm3.6761 0h-1.2253v1.2462h1.2253v-1.2462Zm-1.2253 1.2463h-1.2254v1.2463h1.2254V17.447ZM4.90111 16.2007h1.22535v-1.2463H4.90111v1.2463Zm1.22513 2.4927H4.90088v1.2462h1.22536v-1.2462Zm1.22559 0H6.12646v1.2462h1.22537v-1.2462Z"/>
  <path fill="#000" d="M13.478 14.9546h1.2254v-1.2463H13.478v1.2463Zm1.2259 3.7388h-1.2254v1.2462h1.2254v-1.2462Zm-8.57746-3.7388h1.22537v-1.2463H6.12644v1.2463Zm9.80276 3.7388h-1.2253v1.2462h1.2253v-1.2462ZM6.12624 1.24634H4.90088v1.24625h1.22536V1.24634Zm1.22559 0H6.12646v1.24625h1.22537V1.24634Zm7.35207 0h-1.2254v1.24625h1.2254V1.24634Z"/>
  <path fill="#000" d="M15.9292 1.24634h-1.2253v1.24625h1.2253V1.24634Z"/>
</svg>
