<svg xmlns="http://www.w3.org/2000/svg" width="21" height="22" fill="none">
  <path fill="#FF0" d="M2 6 .5 8.5l.5 5 4.5 6h1l1 .5H13l1-.5h1.5L19 15l1-2V8l-1-1V5.5l-3-3L13 1H7.5L2 5v1Z"/>
  <path fill="#000" d="M3.67604 3.73877H2.45068v1.24625h1.22536V3.73877Zm14.70386 0h-1.2254v1.24625h1.2254V3.73877ZM4.90138 2.49243H3.67603v1.24625h1.22535V2.49243Zm2.45069 4.98511H6.12671v1.24625h1.22536V7.47754Z"/>
  <path fill="#000" d="M8.57741 7.47754H7.35205v1.24625h1.22536V7.47754Z"/>
  <path fill="#000" d="M7.35207 8.72363H6.12671v1.24625h1.22536V8.72363Z"/>
  <path fill="#000" d="M8.57741 8.72363H7.35205v1.24625h1.22536V8.72363Zm4.90109-1.24609h-1.2253v1.24625h1.2253V7.47754Zm1.2254 0h-1.2254v1.24625h1.2254V7.47754Z"/>
  <path fill="#000" d="M13.4785 8.72363h-1.2253v1.24625h1.2253V8.72363Zm1.2254 0h-1.2254v1.24625h1.2254V8.72363Zm2.4507-6.2312h-1.2254v1.24625h1.2254V2.49243ZM2.4507 4.98511H1.22534v1.24625H2.4507V4.98511Z"/>
  <path fill="#000" d="M2.4507 6.2312H1.22534v1.24625H2.4507V6.2312Zm17.1545-1.24609h-1.2253v1.24625h1.2253V4.98511Z"/>
  <path fill="#000" d="M19.6052 6.2312h-1.2253v1.24625h1.2253V6.2312ZM1.22536 7.47754H0v1.24625h1.22536V7.47754Z"/>
  <path fill="#000" d="M1.22536 8.72363H0v1.24625h1.22536V8.72363Zm0 1.24634H0v1.24623h1.22536V9.96997Zm0 1.24633H0v1.2463h1.22536v-1.2463Z"/>
  <path fill="#000" d="M1.22536 12.4624H0v1.2463h1.22536v-1.2463ZM20.8306 7.47754h-1.2254v1.24625h1.2254V7.47754Z"/>
  <path fill="#000" d="M20.8306 8.72363h-1.2254v1.24625h1.2254V8.72363Zm0 1.24634h-1.2254v1.24623h1.2254V9.96997Zm0 1.24633h-1.2254v1.2463h1.2254v-1.2463Z"/>
  <path fill="#000" d="M20.8306 12.4624h-1.2254v1.2463h1.2254v-1.2463ZM7.35205 19.9395v1.2463h1.22536v-1.2463H7.35205Zm1.22559 0v1.2463H9.803v-1.2463H8.57764Z"/>
  <path fill="#000" d="M9.80273 19.9395v1.2463h1.22537v-1.2463H9.80273Z"/>
  <path fill="#000" d="M11.0278 19.9395v1.2463h1.2254v-1.2463h-1.2254Zm1.2254 0v1.2463h1.2253v-1.2463h-1.2253Zm-4.90164-4.9851v1.2463h1.22536v-1.2463H7.35156Zm1.22559 0v1.2463h1.22536v-1.2463H8.57715Z"/>
  <path fill="#000" d="M9.80249 14.9544v1.2463h1.22541v-1.2463H9.80249Z"/>
  <path fill="#000" d="M11.0278 14.9544v1.2463h1.2254v-1.2463h-1.2254Zm1.2254.0005v1.2463h1.2253v-1.2463h-1.2253ZM7.35156.00009v1.24625h1.22536V.00009H7.35156Zm1.22559 0v1.24625h1.22536V.00009H8.57715Z"/>
  <path fill="#000" d="M9.80249.00009v1.24625h1.22531V.00009H9.80249Z"/>
  <path fill="#000" d="M11.0278.00009v1.24625h1.2254V.00009h-1.2254Zm1.2254.00049v1.24625h1.2253V.00058h-1.2253ZM2.4507 13.7083H1.22534v1.2462H2.4507v-1.2462Zm0 1.2463H1.22534v1.2462H2.4507v-1.2462Zm17.1545-1.2463h-1.2253v1.2462h1.2253v-1.2462Zm0 1.2463h-1.2253v1.2462h1.2253v-1.2462Z"/>
  <path fill="#000" d="M3.67604 16.2007H2.45068v1.2462h1.22536v-1.2462Zm1.22534 1.2463H3.67603v1.2463h1.22535V17.447Zm1.22535-4.9846H4.90137v1.2463h1.22536v-1.2463Zm12.25317 3.7383h-1.2254v1.2462h1.2254v-1.2462Zm-1.2253 1.2463h-1.2254v1.2463h1.2254V17.447Zm-1.2254-4.9846h-1.2253v1.2463h1.2253v-1.2463Zm-9.80247 6.231H4.90137v1.2462h1.22536v-1.2462Z"/>
  <path fill="#000" d="M7.35207 18.6934H6.12671v1.2462h1.22536v-1.2462Zm0-4.9851H6.12671v1.2462h1.22536v-1.2462Zm7.35183 4.9851h-1.2254v1.2462h1.2254v-1.2462Zm0-4.9851h-1.2254v1.2462h1.2254v-1.2462Z"/>
  <path fill="#000" d="M15.9292 18.6934h-1.2253v1.2462h1.2253v-1.2462ZM6.12673 1.24634H4.90137v1.24625h1.22536V1.24634Z"/>
  <path fill="#000" d="M7.35207 1.24634H6.12671v1.24625h1.22536V1.24634Zm7.35183 0h-1.2254v1.24625h1.2254V1.24634Z"/>
  <path fill="#000" d="M15.9292 1.24634h-1.2253v1.24625h1.2253V1.24634Z"/>
</svg>
